<?xml version="1.0" encoding="UTF-8"?>
<svg version="1.1" xmlns="http://www.w3.org/2000/svg" width="1914" height="627">
<path d="M0 0 C631.62 0 1263.24 0 1914 0 C1914 206.91 1914 413.82 1914 627 C1282.38 627 650.76 627 0 627 C0 420.09 0 213.18 0 0 Z " fill="#FFFEFE" transform="translate(0,0)"/>
<path d="M0 0 C28.71 0 57.42 0 87 0 C104.03325764 43.15091936 104.03325764 43.15091936 110.22616577 59.18728638 C112.18142311 64.24979734 114.14139094 69.31048389 116.1015625 74.37109375 C116.50040146 75.40084824 116.89924042 76.43060272 117.31016541 77.49156189 C121.90960609 89.35883209 126.54639306 101.21147492 131.1875 113.0625 C131.58570953 114.07932861 131.98391907 115.09615723 132.39419556 116.14379883 C134.59506112 121.76295198 136.79702376 127.38167402 139 133 C141.00747424 130.99252576 141.63476416 129.80703433 142.68554688 127.23266602 C143.00840668 126.44894623 143.33126648 125.66522644 143.66390991 124.85775757 C144.01200714 123.99848663 144.36010437 123.1392157 144.71875 122.25390625 C145.08851959 121.35306305 145.45828918 120.45221985 145.83926392 119.52407837 C146.64192758 117.56725915 147.44233996 115.60951533 148.24078369 113.65097046 C150.38754442 108.38562642 152.55064032 103.12698851 154.7109375 97.8671875 C155.1534787 96.78831772 155.5960199 95.70944794 156.05197144 94.59788513 C160.35834689 84.10614843 164.73409696 73.64408158 169.125 63.1875 C173.73218057 52.21212844 178.3258613 41.23166723 182.87109375 30.23046875 C183.26744019 29.2716832 183.66378662 28.31289764 184.07214355 27.32505798 C185.97932544 22.71050126 187.88366015 18.09480041 189.78369141 13.47729492 C190.46117508 11.83638947 191.13874194 10.19551836 191.81640625 8.5546875 C192.12589706 7.79967453 192.43538788 7.04466156 192.7542572 6.26676941 C194.88657021 1.11342979 194.88657021 1.11342979 196 0 C225.04 0 254.08 0 284 0 C284 170.94 284 341.88 284 518 C274.56846197 516.82105775 265.2340728 515.62492756 255.875 514.0625 C248.85257371 512.91015905 241.83422003 511.81286705 234.77563477 510.90600586 C231.18372583 510.44051669 227.59854136 509.93173063 224.01318359 509.41845703 C221.84376929 509.11717879 219.67183303 508.83386337 217.49853516 508.56201172 C213.80296246 508.09012227 210.12207491 507.55064499 206.4375 507 C205.27686035 506.86537354 204.1162207 506.73074707 202.92041016 506.59204102 C195.09229762 505.33562722 195.09229762 505.33562722 192.36157227 501.99658203 C190.9710251 499.05325251 189.98907235 496.10206064 189 493 C188.2385926 490.98025303 187.44668071 488.97376126 186.65567017 486.96543884 C185.42214854 483.81508299 184.2347415 480.64786186 183.04342651 477.48135376 C181.30046193 472.85023998 179.54421928 468.22416008 177.7890625 463.59765625 C177.41114059 462.60080307 177.03321869 461.60394989 176.6438446 460.57688904 C171.79499293 447.80160346 166.86400178 435.05799137 161.9375 422.3125 C160.5306353 418.67155127 159.12387439 415.03056246 157.71711731 411.38957214 C156.79854453 409.01211882 155.87991517 406.63468735 154.96122742 404.25727844 C150.67169175 393.15483384 146.39566661 382.04721448 142.125 370.9375 C141.6431575 369.68412338 141.6431575 369.68412338 141.15158081 368.40542603 C139.43389558 363.93713949 137.71668131 359.46867232 136 355 C132.16916485 362.35271468 128.82121425 369.88020217 125.58520508 377.50878906 C124.65136918 379.71017323 123.71381225 381.90994197 122.77539062 384.109375 C121.71801674 386.5878358 120.66094195 389.06642124 119.60494995 391.54547119 C114.94391511 402.48699495 110.25357312 413.41596154 105.56655884 424.34637451 C102.98107213 430.37640664 100.39684343 436.40697782 97.8125 442.4375 C96.81641233 444.76172135 95.8203187 447.08594016 94.82421875 449.41015625 C94.34903809 450.51891113 93.87385742 451.62766602 93.38427734 452.77001953 C92.07519531 455.82454427 90.76611328 458.87906901 89.45703125 461.93359375 C89.06402832 462.85060059 88.67102539 463.76760742 88.26611328 464.71240234 C85.63305664 470.85620117 85.63305664 470.85620117 83 477 C82.68240723 477.7410498 82.36481445 478.48209961 82.03759766 479.24560547 C80.35839844 483.16373698 78.67919922 487.08186849 77 491 C74.44896207 490.85656891 71.89829616 490.70881156 69.34765625 490.55859375 C68.27288025 490.49883362 68.27288025 490.49883362 67.1763916 490.43786621 C63.2025258 490.20023017 59.35509142 489.81193524 55.4375 489.0625 C49.80966096 488.0351361 44.1956231 487.52885627 38.5 487.0625 C29.34311718 486.30642011 20.20106688 485.45353226 11.0625 484.5 C9.88429688 484.38148682 8.70609375 484.26297363 7.4921875 484.14086914 C1.49094216 483.50509279 -4.19297451 482.65304284 -10 481 C-9.32813039 476.32602519 -7.50944875 472.25795416 -5.59765625 467.984375 C-5.24875839 467.19351501 -4.89986053 466.40265503 -4.54039001 465.58782959 C-3.38569177 462.97315913 -2.22404144 460.36163672 -1.0625 457.75 C-0.24621318 455.90453193 0.56953321 454.05882472 1.38476562 452.21289062 C3.07977165 448.37602124 4.77710521 444.54019425 6.47607422 440.70507812 C9.96685517 432.82059289 13.42936496 424.92373739 16.8918457 417.02679443 C18.76107167 412.76461742 20.63267037 408.50348238 22.50390625 404.2421875 C25.12022126 398.28330366 27.73543319 392.32393759 30.34927368 386.3639679 C38.85854854 366.96163405 47.39286149 347.57070058 55.96298218 328.19515991 C59.9145721 319.26042928 63.8645636 310.32509835 67.78125 301.375 C68.07502029 300.70401276 68.36879059 300.03302551 68.67146301 299.34170532 C70.08640177 296.10731276 71.49627569 292.87085232 72.8972168 289.63037109 C75.58407447 283.42903992 78.32513107 277.26268656 81.19711304 271.14445496 C82.65024584 268.04325297 84.08205511 264.93240519 85.51281738 261.8208313 C86.20401015 260.33377014 86.9056832 258.85152843 87.61853027 257.37472534 C88.60724932 255.3250202 89.55846511 253.26135261 90.50390625 251.19140625 C91.33643921 249.43098999 91.33643921 249.43098999 92.18579102 247.63500977 C93.30531563 242.6369282 91.92903371 239.61394067 90 235 C89.49302684 233.62978242 88.99032362 232.2579764 88.4921875 230.88452148 C87.95515153 229.46261186 87.41599435 228.04150204 86.875 226.62109375 C86.57605835 225.83283707 86.2771167 225.04458038 85.96911621 224.23243713 C84.98190895 221.63316658 83.99126536 219.03522546 83 216.4375 C82.65396729 215.52895264 82.30793457 214.62040527 81.95141602 213.68432617 C75.86628312 197.71862984 69.60273773 181.8268829 63.28713989 165.95120239 C57.72612785 151.96672626 52.2666652 137.94944485 46.9375 123.875 C40.72023201 107.4573659 34.3704737 91.09550186 27.95678711 74.75366211 C21.26281694 57.69505172 14.63294003 40.61195111 8.01635742 23.52319336 C7.62796188 22.52026245 7.23956635 21.51733154 6.83940125 20.48400879 C6.11393084 18.6104276 5.38874342 16.73673681 4.66389465 14.86291504 C4.1796125 13.61194031 4.1796125 13.61194031 3.68554688 12.33569336 C3.39091553 11.57199432 3.09628418 10.80829529 2.79272461 10.02145386 C2.14374558 8.36655233 1.46043173 6.72515239 0.76757812 5.08813477 C0 3 0 3 0 0 Z " fill="#FF0000" transform="translate(1630,73)"/>
<path d="M0 0 C24.09 0 48.18 0 73 0 C77.8571875 13.7053125 77.8571875 13.7053125 82.8125 27.6875 C84.84422448 33.41566004 86.87606465 39.14377451 88.91015625 44.87109375 C89.16156939 45.57898985 89.41298252 46.28688595 89.67201424 47.01623344 C100.79661501 78.33430844 112.05378844 109.60494526 123.3125 140.875 C123.68479736 141.90911011 124.05709473 142.94322021 124.44067383 144.00866699 C125.54501777 147.07611457 126.64943768 150.14353479 127.75390625 153.2109375 C128.28886215 154.6966626 128.28886215 154.6966626 128.83462524 156.21240234 C130.90300136 161.95608599 132.97339048 167.69903907 135.04533386 173.44143677 C136.31807622 176.97011924 137.58909411 180.49942121 138.85971069 184.02886963 C139.4375644 185.63278853 140.01615469 187.23644231 140.59561157 188.83978271 C143.53516001 196.97409859 146.38641522 205.12381367 149.078125 213.34375 C151.06279996 219.39678114 153.28867318 225.25522082 155.81201172 231.10839844 C158.03041089 236.50805315 159.76732331 242.07342391 161.5625 247.625 C164.47038312 256.68858738 164.47038312 256.68858738 167.83984375 265.5859375 C171.17687032 273.94962434 174.02524984 282.50071383 177 291 C177.33 194.97 177.66 98.94 178 0 C204.73 0 231.46 0 259 0 C259 160.05 259 320.1 259 485 C219.82560105 490.76094102 219.82560105 490.76094102 206.625 492.1875 C205.26296354 492.33998388 203.9009849 492.49298505 202.5390625 492.64648438 C191.70236522 493.85808533 180.85143106 494.92995356 170 496 C169.79305511 495.38947281 169.58611023 494.77894562 169.37289429 494.1499176 C156.65606667 456.62653361 156.65606667 456.62653361 143.875 419.125 C131.33964908 382.44673338 118.89176705 345.7392819 106.49445343 309.01416397 C98.41604488 285.08315393 90.31193825 261.16140611 82.11547852 237.27050781 C81.06311064 234.18503615 80.03090317 231.09270952 79 228 C78.67 320.07 78.34 412.14 78 507 C71.17123219 508.24159415 64.46853232 509.40209406 57.59765625 510.21875 C56.75383896 510.32215698 55.91002167 510.42556396 55.04063416 510.53210449 C52.38161482 510.85776832 49.72212715 511.17934089 47.0625 511.5 C43.55299922 511.92397515 40.04384943 512.35064086 36.53515625 512.78125 C35.26848618 512.9361792 35.26848618 512.9361792 33.97622681 513.09423828 C29.52007657 513.64968222 25.10403431 514.2947415 20.68359375 515.09375 C13.84621607 516.18397105 6.90841509 516.53943899 0 517 C0 346.39 0 175.78 0 0 Z " fill="#FF0000" transform="translate(0,73)"/>
<path d="M0 0 C73.92 0 147.84 0 224 0 C224 26.73 224 53.46 224 81 C176.81 81 129.62 81 81 81 C81 116.64 81 152.28 81 189 C106.44106485 188.67280741 106.44106485 188.67280741 131.88208008 188.34179688 C136.9017334 188.27832031 136.9017334 188.27832031 139.28178406 188.24865723 C140.8781056 188.22845128 142.4744191 188.20760153 144.07072449 188.18615723 C159.04946502 187.98581135 174.01727867 188 189 188 C189 214.73 189 241.46 189 269 C160.875 269.4375 160.875 269.4375 152.33544922 269.56811523 C128.55343578 269.94531637 104.78099413 270.48302187 81 271 C81 310.6 81 350.2 81 391 C89.91 390.34 98.82 389.68 108 389 C115.72856048 388.4847842 123.45708054 387.97751827 131.1875 387.4921875 C132.72002411 387.39564566 132.72002411 387.39564566 134.2835083 387.29715347 C139.66757227 386.95817913 145.05175091 386.62110107 150.43603516 386.28564453 C155.92327369 385.94336304 161.41004317 385.59406816 166.89674377 385.24328423 C171.19325485 384.96992359 175.49008697 384.70188811 179.78701782 384.435215 C181.80893348 384.30882653 183.83072979 384.18051049 185.85238647 384.05004501 C188.69033075 383.86738259 191.52866281 383.69242269 194.3671875 383.51904297 C195.16348068 383.46608063 195.95977386 383.41311829 196.78019714 383.35855103 C205.88162382 382.81928329 214.82707276 383 224 383 C224 408.74 224 434.48 224 461 C214.8425 461.680625 205.685 462.36125 196.25 463.0625 C170.35754641 465.00731535 144.47962935 467.09745743 118.60582352 469.27541351 C92.05104759 471.51046627 65.49487258 473.71665362 38.92561722 475.77346802 C36.8339454 475.93583529 34.7423837 476.0995563 32.65084839 476.26367188 C28.81574632 476.56432841 24.98018904 476.85885647 21.14453125 477.15234375 C20.03608856 477.23947128 18.92764587 477.32659882 17.78561401 477.41636658 C16.75268219 477.49415848 15.71975037 477.57195038 14.65551758 477.65209961 C13.77414627 477.71981064 12.89277496 477.78752167 11.98469543 477.85728455 C7.99407309 478.04809915 3.99518171 478 0 478 C0 320.26 0 162.52 0 0 Z " fill="#FF0000" transform="translate(338,73)"/>
<path d="M0 0 C74.58 0 149.16 0 226 0 C226 26.4 226 52.8 226 80 C177.49 80 128.98 80 79 80 C79 114.32 79 148.64 79 184 C115.63 184 152.26 184 190 184 C190 210.73 190 237.46 190 265 C153.37 265 116.74 265 79 265 C79 325.72 79 386.44 79 449 C52.93 449 26.86 449 0 449 C0 300.83 0 152.66 0 0 Z " fill="#FF0000" transform="translate(916,73)"/>
<path d="M0 0 C82.5 0 165 0 250 0 C250 27.06 250 54.12 250 82 C221.95 82 193.9 82 165 82 C165 205.09 165 328.18 165 455 C106 456 106 456 84 456 C84 332.58 84 209.16 84 82 C56.28 82 28.56 82 0 82 C0 54.94 0 27.88 0 0 Z " fill="#FF0101" transform="translate(614,72)"/>
<path d="M0 0 C26.73 0 53.46 0 81 0 C81 124.74 81 249.48 81 378 C87.93 378 94.86 378 102 378 C108.73422238 378.24621428 115.45890862 378.52611944 122.1875 378.875 C124.02082053 378.966403 125.85415415 379.05754377 127.6875 379.1484375 C142.36622774 379.88413358 157.0385515 380.72255039 171.7081604 381.62049866 C176.94398109 381.93970284 182.18075268 382.23982175 187.41796875 382.53515625 C189.7535914 382.66802634 192.08920013 382.8011384 194.42480469 382.93432617 C195.91319358 383.01863823 197.40163675 383.10199836 198.89013672 383.18432617 C200.95166236 383.29854138 203.01294629 383.41647108 205.07421875 383.53515625 C206.24557373 383.600979 207.41692871 383.66680176 208.6237793 383.73461914 C212.09742918 384.00765822 215.55065543 384.50723649 219 385 C219 411.4 219 437.8 219 465 C208.26590091 465 197.84057261 464.96004257 187.1875 464.1875 C185.17226987 464.05119644 183.1570394 463.91489773 181.14179993 463.7787323 C175.84626224 463.41794986 170.55192565 463.04022405 165.2578125 462.65917969 C141.81876281 460.97487702 118.37392666 459.60212413 94.89908218 458.53016281 C92.96200868 458.44148327 91.02499389 458.35152428 89.08798218 458.26150513 C59.40120868 456.89284582 29.70285886 456.00687657 0 455 C0 304.85 0 154.7 0 0 Z " fill="#FF0000" transform="translate(1193,73)"/>
<path d="M0 0 C26.4 0 52.8 0 80 0 C80 157.74 80 315.48 80 478 C11 473 11 473 0 472 C0 316.24 0 160.48 0 0 Z " fill="#FF0202" transform="translate(1480,72)"/>
<path d="M0 0 C0.33 0 0.66 0 1 0 C1 168.63 1 337.26 1 511 C-1.80360429 508.19639571 -2.7023526 504.8158586 -4.02734375 501.15625 C-4.32724716 500.34253937 -4.62715057 499.52882874 -4.93614197 498.69046021 C-5.59259816 496.90819287 -6.24664573 495.12503702 -6.89862061 493.34112549 C-8.70255279 488.407735 -10.52613029 483.48160313 -12.34765625 478.5546875 C-12.73038696 477.5182309 -13.11311768 476.48177429 -13.50744629 475.41390991 C-17.55889327 464.45712592 -21.7126462 453.54002216 -25.875 442.625 C-33.26403821 423.23106574 -40.60395941 403.81901578 -47.91804504 384.3967247 C-48.7501129 382.18720019 -49.58226132 379.97770602 -50.41442871 377.76821899 C-53.18851037 370.40261139 -55.96210102 363.036819 -58.73535156 355.67089844 C-60.87254353 349.99439917 -63.00985377 344.31794449 -65.14746094 338.64160156 C-65.40255778 337.96414761 -65.65765463 337.28669365 -65.92048168 336.58871078 C-67.18560498 333.22923267 -68.45131742 329.86997853 -69.71821594 326.51116943 C-71.90469086 320.71348642 -74.08895222 314.91508206 -76.25499821 309.10972977 C-80.72336569 297.13581455 -85.27117311 285.22263944 -90.19921875 273.4296875 C-91.3711148 270.57156292 -92.53898566 267.71183198 -93.70526123 264.85140991 C-94.76866195 262.29297012 -95.88679231 259.76417425 -97.01025391 257.23168945 C-100.18985398 249.69002421 -102.05697138 243.96602218 -98.9140625 236.12890625 C-98.00615987 234.10373919 -97.04564551 232.11794909 -96.0461731 230.13638306 C-94.55596127 227.0932315 -93.30513566 223.96583923 -92.03210449 220.82698059 C-90.98670645 218.25455116 -89.9154705 215.69440598 -88.83569336 213.13623047 C-87.27510543 209.43850842 -85.71680259 205.73985846 -84.16235352 202.03955078 C-82.54444115 198.1883873 -80.92542612 194.33769053 -79.30566406 190.48730469 C-75.9994284 182.62355665 -72.71651378 174.75012931 -69.4375 166.875 C-69.13748077 166.15477661 -68.83746155 165.43455322 -68.52835083 164.69250488 C-63.14268656 151.76316571 -57.7783243 138.82501141 -52.41671753 125.88568115 C-47.15444667 113.1862913 -41.87675696 100.49344341 -36.58502197 87.80630493 C-31.49728566 75.60735858 -26.43292587 63.39883284 -21.375 51.1875 C-14.29901314 34.10431273 -7.17110993 17.04347062 0 0 Z " fill="#FFFEFE" transform="translate(1913,76)"/>
<path d="M0 0 C27.06 0 54.12 0 82 0 C82 0.33 82 0.66 82 1 C55.27 1 28.54 1 1 1 C1 98.02 1 195.04 1 295 C-0.74627478 292.38058783 -1.38722388 290.96175123 -2 288 C-1.34 288 -0.68 288 0 288 C0 192.96 0 97.92 0 0 Z " fill="#FFB1B1" transform="translate(177,72)"/>
</svg>
